# Blender v2.80 (sub 75) OBJ File: 'park2before.blend'
# www.blender.org
mtllib LightweightPark.mtl
o Ground_Grid
v -7.193411 -3.712040 -2.542376
v -11.624865 -3.422704 3.320044
v -9.267848 -1.691809 2.320286
v 15.720067 -0.379039 -8.711973
v -14.929387 -1.974143 10.359239
v 14.278954 -1.689071 9.997334
v 12.834936 -2.048104 14.106322
v 8.000051 -1.876864 19.024559
v -8.790563 -2.014818 17.870878
v -9.112069 -1.763928 -7.033251
v 14.411956 -1.878333 -10.827038
v -4.648293 -1.949273 -14.613150
v -12.064357 -3.498764 14.332719
v -14.015340 -3.602872 4.367023
v -9.374804 -3.619078 -8.864162
v -1.487004 -3.707867 -15.728327
v 29.998184 -0.994575 30.005665
v 9.050607 -0.203310 19.624640
v -0.206668 -0.200194 21.960417
v -9.175475 -0.243031 18.301062
v 15.626083 -0.298363 11.182033
v -14.606469 -0.240343 11.691869
v 11.211032 -0.179421 0.386481
v -7.750030 -3.616322 18.707657
v 8.321161 -3.675494 18.673546
v -10.259881 -0.207194 -9.862381
v 29.957777 -0.556833 -29.960535
v -7.839773 -0.151064 -13.703864
v -1.329165 -1.926188 -15.988272
v 12.770463 -0.274818 -16.071493
v 1.484484 -0.207384 -18.115288
v -9.387918 -2.211625 17.911726
v 8.524086 -2.116205 1.409423
v -8.065939 -2.050049 -12.212325
v -7.506716 -1.998559 0.402734
v -11.477579 -2.018360 3.125919
v -29.998514 -0.554507 -29.995750
v -3.031282 -1.868537 20.355925
v -12.180813 -0.162627 3.100941
v -29.914660 -1.589421 29.955374
v 2.261461 -1.878373 19.743536
v -14.134186 -2.033252 4.487377
v 11.537404 -1.670233 4.801185
v 10.243431 -1.720301 -1.953104
v -8.736749 -0.452796 -4.066614
v 2.728154 -1.977761 20.835321
v 11.453595 -1.874294 0.419241
v 2.169499 -3.653612 19.705057
v -7.904149 -3.712846 -12.714934
v 13.049482 -3.683186 -14.698511
v 13.129115 -1.971288 -16.018675
v 5.534647 -1.942756 -16.903528
v -6.313767 -1.321287 19.410124
v 13.205824 -0.212288 15.619223
v 12.591212 -1.915133 -15.022524
v 5.700387 -1.920690 -15.810547
v -4.592170 -2.019261 20.705858
v -15.108155 -1.856123 4.571593
v -8.601387 -1.917525 0.983550
v 14.332034 -3.640137 10.823735
v -9.080170 -2.058967 -5.113550
v 8.094324 -1.958320 19.955225
v 15.547276 -1.930471 -8.158958
v -14.843846 -0.267157 4.330425
v -8.163273 -0.261710 0.138054
v 10.934898 -3.483197 4.384899
v 12.011889 -3.559698 15.445719
v -7.968921 -1.867628 -13.615396
v -1.411028 -1.893216 -16.982334
v -9.266916 -3.767002 2.093716
v -4.569087 -3.591038 -14.823626
v 15.704452 -1.870243 11.253173
v -29.969152 -0.036607 29.953262
v -3.145448 -3.629464 20.144190
v -14.019753 -1.892584 11.219086
v -14.117006 -3.726170 10.167954
v 10.214437 -3.694004 -3.251997
v 13.654199 -3.590820 -8.638690
v 5.216332 -3.679383 -16.040415
vt 0.725662 0.514875
vt 0.737842 0.548407
vt 0.699792 0.650722
vt 0.554290 0.538964
vt 0.554750 0.640599
vt 0.543760 0.581941
vt 0.706641 0.126233
vt 0.761178 0.107936
vt 0.732914 0.116607
vt 0.524907 0.665620
vt 0.541082 0.661197
vt 0.503895 0.678110
vt 0.546834 0.789050
vt 0.234589 0.512539
vt 0.225329 0.517628
vt 0.232309 0.502640
vt 0.166283 0.503762
vt 0.166290 0.538663
vt 0.157504 0.538488
vt 0.064273 0.503626
vt 0.072695 0.556112
vt 0.063081 0.558858
vt 0.074084 0.585843
vt 0.064307 0.594202
vt 0.610573 0.506349
vt 0.669345 0.506943
vt 0.582182 0.516881
vt 0.014154 0.582178
vt 0.005598 0.561229
vt 0.014908 0.563209
vt 0.725913 0.756783
vt 0.639133 0.804879
vt 0.076439 0.504783
vt 0.102283 0.600256
vt 0.094998 0.603719
vt 0.093926 0.551519
vt 0.361442 0.503841
vt 0.351519 0.511872
vt 0.350910 0.500175
vt 0.033974 0.533873
vt 0.046743 0.511551
vt 0.043469 0.555298
vt 0.089430 0.548779
vt 0.081151 0.507104
vt 0.091075 0.517399
vt 0.011926 0.623037
vt 0.001337 0.610686
vt 0.002999 0.582263
vt 0.010196 0.500240
vt 0.007298 0.529284
vt 0.004696 0.503445
vt 0.075343 0.599457
vt 0.080709 0.576656
vt 0.090336 0.582129
vt 0.093936 0.503170
vt 0.103155 0.519518
vt 0.124066 0.519410
vt 0.115071 0.540563
vt 0.118995 0.502764
vt 0.374794 0.500798
vt 0.380402 0.515825
vt 0.372183 0.512602
vt 0.007497 0.653516
vt 0.360686 0.516830
vt 0.037910 0.580890
vt 0.048218 0.607444
vt 0.037434 0.614966
vt 0.567691 0.800712
vt 0.595647 0.809943
vt 0.738336 0.721668
vt 0.715709 0.679785
vt 0.707709 0.623877
vt 0.079318 0.543990
vt 0.018121 0.659171
vt 0.017277 0.651682
vt 0.036480 0.503286
vt 0.361442 0.500071
vt 0.371691 0.501152
vt 0.369428 0.514902
vt 0.304264 0.521393
vt 0.307364 0.517329
vt 0.307364 0.524487
vt 0.329589 0.503841
vt 0.340420 0.504078
vt 0.340420 0.517435
vt 0.687200 0.796332
vt 0.505971 0.732389
vt 0.552032 0.606996
vt 0.696776 0.414665
vt 0.748527 0.428792
vt 0.674014 0.403138
vt 0.132981 0.340622
vt 0.161296 0.281088
vt 0.150383 0.377540
vt 0.312828 0.227796
vt 0.181310 0.404262
vt 0.374022 0.287554
vt 0.500003 0.000127
vt 0.374960 0.338300
vt 0.316635 0.138367
vt 0.213401 0.515805
vt 0.210473 0.500122
vt 0.222578 0.500699
vt 0.174589 0.531599
vt 0.167341 0.500510
vt 0.174258 0.506861
vt 0.126778 0.182657
vt 0.137581 0.177627
vt 0.161439 0.224016
vt 0.261207 0.118821
vt 0.288160 0.125278
vt 0.144125 0.129534
vt 0.205662 0.116957
vt 0.824050 0.410762
vt 0.500261 0.500002
vt 1.000000 0.499991
vt 0.777855 0.420185
vt 0.352279 0.365306
vt 0.327211 0.267086
vt 0.368104 0.334899
vt 0.233853 0.413372
vt 0.276665 0.418456
vt 0.667624 0.167691
vt 0.678823 0.217568
vt 0.650069 0.274952
vt 0.877715 0.176141
vt 0.999588 0.000522
vt 0.848520 0.253423
vt 0.500009 0.000019
vt 0.855748 0.116520
vt 0.227818 0.424043
vt 0.287120 0.421086
vt 0.499304 0.499908
vt 0.000002 0.499949
vt 0.123617 0.343950
vt 0.022229 0.504427
vt 0.033076 0.508466
vt 0.020360 0.550024
vt 0.263138 0.109727
vt 0.000000 0.000000
vt 0.167186 0.530462
vt 0.326503 0.518906
vt 0.321565 0.523977
vt 0.322135 0.515626
vt 0.029942 0.541095
vt 0.029299 0.580283
vt 0.050376 0.528070
vt 0.059998 0.528958
vt 0.059596 0.582729
vt 0.051370 0.582401
vt 0.059580 0.641945
vt 0.315828 0.144460
vt 0.325629 0.174320
vt 0.283921 0.515841
vt 0.272735 0.514773
vt 0.273174 0.500190
vt 0.023744 0.667543
vt 0.028882 0.631949
vt 0.032443 0.663489
vt 0.146875 0.503963
vt 0.153950 0.543580
vt 0.149719 0.544121
vt 0.109016 0.508288
vt 0.113302 0.505213
vt 0.110072 0.539504
vt 0.197915 0.519370
vt 0.188650 0.503431
vt 0.198050 0.500071
vt 0.144840 0.523477
vt 0.138192 0.532830
vt 0.142829 0.504451
vt 0.292865 0.125516
vt 0.146517 0.560144
vt 0.060393 0.502123
vt 0.061158 0.524115
vt 0.104118 0.571665
vt 0.112381 0.588738
vt 0.106894 0.582655
vt 0.325841 0.208788
vt 0.151404 0.254366
vt 0.323016 0.257807
vt 0.348614 0.275780
vt 0.327882 0.399657
vt 0.357293 0.367586
vt 0.686297 0.136584
vt 0.874874 0.150619
vt 0.681851 0.250147
vt 0.626515 0.287603
vt 0.314540 0.404684
vt 0.346706 0.276379
vt 0.367259 0.287400
vt 0.864317 0.376085
vt 0.876675 0.342527
vt 0.050208 0.638867
vt 0.020074 0.595297
vt 0.156580 0.503409
vt 0.789897 0.500420
vt 0.795568 0.913779
vt 0.781610 0.914714
vt 0.768621 0.500002
vt 0.781608 0.501270
vt 0.772950 0.986603
vt 0.204828 0.108799
vt 0.143128 0.118465
vt 0.188091 0.536184
vt 0.180663 0.533098
vt 0.179939 0.518323
vt 0.328039 0.159405
vt 0.340420 0.518658
vt 0.349790 0.502062
vt 0.350105 0.514784
vt 0.190193 0.526865
vt 0.146674 0.296629
vt 0.181168 0.414747
vt 0.669813 0.267002
vt 0.629227 0.347628
vt 0.714853 0.418409
vn 0.0308 -0.9995 -0.0046
vn -0.2034 -0.9790 0.0130
vn -0.3364 -0.4637 -0.8197
vn 0.3381 -0.6785 0.6522
vn -0.1870 -0.9822 -0.0147
vn 0.8037 -0.4160 -0.4255
vn 0.1141 -0.3980 0.9102
vn -0.9390 -0.3425 0.0315
vn -0.7030 -0.4149 0.5776
vn 0.0011 -0.9999 -0.0140
vn 0.5056 -0.8199 0.2685
vn 0.0314 -0.9995 0.0027
vn 0.0055 -0.9992 0.0404
vn -0.9284 -0.3709 0.0235
vn 0.0958 -0.5437 -0.8338
vn -0.4477 -0.1814 -0.8756
vn -0.7021 -0.7046 -0.1029
vn 0.5754 -0.5711 0.5855
vn 0.5639 -0.7774 0.2787
vn 0.8660 -0.3331 -0.3729
vn -0.7513 -0.3053 0.5850
vn 0.6383 -0.7533 0.1585
vn 0.0162 -0.7880 -0.6154
vn 0.0742 -0.7536 0.6531
vn -0.4869 -0.5029 -0.7142
vn 0.9317 -0.3176 -0.1761
vn -0.3993 -0.2391 -0.8851
vn -0.9329 -0.3310 0.1423
vn -0.3139 -0.5678 0.7610
vn 0.0600 -0.9979 -0.0226
vn 0.3446 -0.9203 -0.1852
vn 0.1752 -0.9842 -0.0263
vn -0.0070 -1.0000 -0.0046
vn 0.8704 -0.2670 0.4136
vn 0.0017 -0.9999 -0.0118
vn 0.5588 -0.5917 0.5810
vn 0.1286 -0.6687 -0.7324
vn 0.6699 -0.6870 -0.2815
vn -0.8036 -0.3055 -0.5107
vn -0.4411 -0.3011 0.8454
vn -0.7148 -0.3614 -0.5987
vn -0.9357 -0.2633 0.2347
vn 0.7559 -0.5005 0.4220
vn -0.3218 -0.1346 -0.9372
vn 0.0039 -0.9988 0.0498
vn 0.0053 -0.9992 0.0400
vn -0.0006 -1.0000 0.0056
vn -0.0510 -0.9985 0.0217
vn 0.1329 -0.9903 -0.0398
vn -0.0072 -1.0000 -0.0015
vn -0.9624 -0.1817 0.2020
vn 0.0018 -1.0000 -0.0085
vn -0.3771 -0.0496 0.9248
vn 0.0405 0.9992 0.0030
vn -0.0200 0.9997 0.0129
vn 0.0431 0.9989 0.0190
vn 0.0464 0.9988 0.0176
vn 0.4734 0.3218 0.8199
vn -0.1334 0.5843 -0.8005
vn -0.5669 0.7468 -0.3477
vn 0.0294 0.9992 -0.0287
vn 0.0003 1.0000 0.0010
vn 0.0759 -0.9503 0.3020
vn -0.0159 -0.9989 -0.0440
vn 0.1797 -0.6777 0.7131
vn -0.0452 0.9985 -0.0322
vn 0.0042 1.0000 -0.0044
vn -0.1108 -0.9938 -0.0130
vn 0.0774 -0.9952 0.0602
vn -0.0216 -0.9960 0.0863
vn -0.0046 0.9982 -0.0590
vn -0.0577 0.9983 -0.0026
vn 0.0115 0.5565 -0.8308
vn 0.0266 0.9987 0.0443
vn -0.0000 0.9947 0.1024
vn -0.1325 0.5816 -0.8026
vn 0.8176 0.5060 -0.2747
vn 0.2565 0.5156 -0.8175
vn 0.0359 0.5671 0.8228
vn -0.1495 0.4619 0.8742
vn -0.0465 0.9989 -0.0106
vn -0.0350 0.9994 0.0024
vn 0.0536 0.9986 -0.0038
vn 0.4797 0.3983 0.7818
vn 0.8051 0.4191 -0.4197
vn 0.9080 0.4183 0.0248
vn -0.8851 0.4599 0.0708
vn 0.9100 -0.0838 0.4060
vn -0.6662 0.7437 0.0551
vn 0.4407 0.2691 0.8564
vn -0.9231 0.2609 0.2826
vn -0.0839 0.9964 0.0073
vn 0.2555 0.5424 0.8003
vn -0.7649 0.4923 0.4155
vn 0.0880 0.9955 0.0339
vn -0.4992 0.8315 -0.2437
vn -0.0032 0.9997 -0.0229
vn 0.4537 0.3564 0.8168
vn 0.8055 -0.0290 -0.5919
vn 0.1010 -0.9893 -0.1052
vn 0.0136 0.9999 -0.0092
vn -0.0098 0.9969 -0.0776
vn 0.0198 -0.9998 -0.0021
vn -0.0210 -0.9998 -0.0057
vn 0.8927 -0.2688 -0.3616
vn 0.0080 -0.9990 0.0443
vn 0.0438 -0.9990 0.0099
vn -0.0080 0.9994 0.0347
vn 0.0029 1.0000 -0.0039
vn -0.0006 -1.0000 0.0086
vn -0.0159 0.9998 0.0085
vn -0.0664 0.9976 0.0200
vn -0.0430 -0.9991 -0.0041
vn -0.0257 -0.9994 -0.0244
vn -0.0014 -0.9999 0.0152
vn -0.0041 1.0000 0.0028
vn -0.0006 1.0000 0.0097
vn -0.0894 0.6108 0.7867
vn -0.0070 0.4461 0.8950
vn 0.6565 0.4048 -0.6365
vn -0.0782 0.2650 -0.9611
vn 0.8469 0.5316 -0.0153
vn 0.0009 -0.0013 -1.0000
vn 0.9994 0.0351 -0.0008
vn 0.0058 0.9932 0.1162
vn -0.0070 0.9957 0.0925
vn -0.6934 0.6248 -0.3589
vn -0.0702 0.9974 0.0164
vn 0.8972 -0.4282 0.1076
vn 0.9168 0.2007 0.3453
vn 0.4985 0.0928 -0.8619
vn 0.7110 0.6995 -0.0721
vn 0.3888 0.1365 0.9112
vn 0.0071 1.0000 -0.0032
vn -0.5962 0.7681 0.2336
vn 0.0481 0.9987 0.0172
vn -0.7528 0.0119 -0.6582
vn -0.6037 0.4241 -0.6751
vn -0.0347 0.9992 -0.0202
vn -0.0142 0.9978 -0.0647
vn 0.0035 -0.9998 0.0201
vn -0.0001 -0.9998 0.0202
vn -0.4105 -0.2917 -0.8639
vn -0.0319 -0.9995 -0.0073
vn 0.0165 -0.9999 0.0011
vn -0.4850 -0.5984 -0.6377
vn 0.0252 0.9996 -0.0162
vn -0.0730 -0.9972 0.0189
vn -0.0086 -1.0000 0.0039
vn 0.2027 0.9722 0.1169
vn -0.0248 0.9997 0.0008
vn -0.0070 -1.0000 0.0053
vn -0.0022 0.9996 -0.0274
vn -0.3117 -0.3294 0.8913
usemtl Rock
s off
f 55/1/1 11/2/1 33/3/1
f 34/4/2 35/5/2 10/6/2
f 12/7/3 31/8/3 29/9/3
f 36/10/4 3/11/4 42/12/4
f 3/11/5 35/5/5 9/13/5
f 6/14/6 43/15/6 21/16/6
f 41/17/7 8/18/7 18/19/7
f 64/20/8 75/21/8 22/22/8
f 22/22/9 75/23/9 20/24/9
f 29/25/10 56/26/10 12/27/10
f 23/28/11 11/29/11 4/30/11
f 34/4/12 12/27/12 35/5/12
f 9/13/13 7/31/13 41/32/13
f 64/20/14 42/33/14 75/21/14
f 30/34/15 55/35/15 56/36/15
f 42/37/16 39/38/16 36/39/16
f 26/40/17 34/41/17 10/42/17
f 7/43/18 18/44/18 8/45/18
f 23/46/19 44/47/19 11/48/19
f 30/49/20 11/50/20 55/51/20
f 20/24/21 75/23/21 9/52/21
f 21/53/22 7/43/22 6/54/22
f 29/55/23 31/56/23 56/36/23
f 19/57/24 38/58/24 41/59/24
f 28/60/25 12/61/25 34/62/25
f 23/46/26 43/63/26 44/47/26
f 64/64/27 39/38/27 42/37/27
f 45/65/28 35/66/28 65/67/28
f 53/68/29 9/13/29 38/69/29
f 42/12/30 3/11/30 9/13/30
f 6/70/31 33/3/31 43/71/31
f 33/3/32 44/72/32 43/71/32
f 35/5/33 12/27/33 33/3/33
f 33/3/34 11/2/34 44/72/34
f 12/27/35 55/1/35 33/3/35
f 54/73/36 18/44/36 7/43/36
f 30/34/37 56/36/37 31/56/37
f 21/74/38 43/63/38 23/75/38
f 28/76/39 34/41/39 26/40/39
f 20/77/40 9/78/40 53/79/40
f 65/80/41 35/81/41 3/82/41
f 26/40/42 10/42/42 45/65/42
f 54/73/43 7/43/43 21/53/43
f 3/83/44 36/84/44 39/85/44
f 9/13/45 41/32/45 38/69/45
f 7/31/46 8/86/46 41/32/46
f 9/13/47 33/3/47 7/31/47
f 42/12/48 9/13/48 75/87/48
f 33/3/49 6/70/49 7/31/49
f 35/5/50 33/3/50 9/13/50
f 10/6/51 35/5/51 45/88/51
f 56/26/52 55/1/52 12/27/52
usemtl Grass
f 53/89/53 19/90/53 20/91/53
f 60/92/54 66/93/54 67/94/54
f 67/94/55 1/95/55 25/96/55
f 58/97/56 37/98/56 5/99/56
f 68/100/57 37/98/57 58/97/57
f 2/101/58 70/102/58 59/103/58
f 62/104/59 48/105/59 46/106/59
f 63/107/60 78/108/60 77/109/60
f 77/109/61 16/110/61 71/111/61
f 50/112/62 79/113/62 77/109/62
f 19/90/63 18/114/63 73/115/63
f 18/114/64 17/116/64 73/115/64
f 41/117/65 18/114/65 19/90/65
f 13/118/66 70/119/66 76/120/66
f 48/121/67 1/95/67 74/122/67
f 26/123/68 45/124/68 39/125/68
f 4/126/69 27/127/69 23/128/69
f 37/129/70 30/130/70 31/8/70
f 46/131/71 57/132/71 40/133/71
f 17/134/72 63/107/72 72/135/72
f 46/136/73 48/137/73 57/138/73
f 69/139/74 37/98/74 68/100/74
f 69/139/75 27/140/75 37/98/75
f 62/104/76 25/141/76 48/105/76
f 61/142/77 1/143/77 15/144/77
f 57/138/78 74/145/78 24/146/78
f 69/147/79 16/148/79 79/149/79
f 52/150/80 79/149/80 50/151/80
f 78/108/81 50/112/81 77/109/81
f 1/95/82 71/111/82 49/152/82
f 15/153/83 1/95/83 49/152/83
f 68/154/84 49/155/84 71/156/84
f 5/157/85 13/158/85 76/159/85
f 14/160/86 5/161/86 76/162/86
f 47/163/87 77/164/87 66/165/87
f 1/166/88 59/167/88 70/168/88
f 63/169/89 50/170/89 78/171/89
f 68/100/90 71/172/90 69/139/90
f 63/169/91 51/173/91 50/170/91
f 63/107/92 17/134/92 27/140/92
f 69/147/93 71/174/93 16/175/93
f 66/176/94 60/177/94 72/178/94
f 61/179/95 68/100/95 58/97/95
f 47/180/96 63/107/96 77/109/96
f 58/97/97 59/181/97 61/179/97
f 58/97/98 2/182/98 59/181/98
f 32/183/99 13/184/99 5/99/99
f 57/132/100 32/183/100 5/99/100
f 40/133/101 57/132/101 5/99/101
f 40/133/102 17/134/102 46/131/102
f 37/129/103 28/185/103 26/123/103
f 30/130/104 27/127/104 4/126/104
f 30/130/105 4/126/105 11/186/105
f 39/125/106 45/124/106 65/187/106
f 64/188/107 26/123/107 39/125/107
f 24/189/108 74/122/108 13/118/108
f 48/121/109 25/96/109 1/95/109
f 73/115/110 37/129/110 64/188/110
f 67/94/111 66/93/111 1/95/111
f 76/120/112 2/190/112 14/191/112
f 54/192/113 21/193/113 17/116/113
f 18/114/114 54/192/114 17/116/114
f 20/91/115 19/90/115 73/115/115
f 77/109/116 79/113/116 16/110/116
f 77/109/117 71/111/117 1/95/117
f 52/150/118 50/151/118 51/194/118
f 69/147/119 79/149/119 52/150/119
f 32/195/120 24/146/120 13/158/120
f 48/137/121 74/145/121 57/138/121
f 5/161/122 14/160/122 58/196/122
f 17/197/123 40/198/123 73/199/123
f 73/200/124 40/201/124 37/202/124
f 52/203/125 27/140/125 69/139/125
f 51/204/126 27/140/126 52/203/126
f 72/205/127 60/206/127 67/207/127
f 27/140/128 51/204/128 63/107/128
f 61/179/129 15/208/129 68/100/129
f 68/209/130 15/210/130 49/211/130
f 57/138/131 24/146/131 32/195/131
f 61/212/132 59/167/132 1/166/132
f 2/182/133 58/97/133 14/191/133
f 63/107/134 47/180/134 72/135/134
f 72/135/135 47/180/135 66/213/135
f 5/99/136 37/98/136 40/133/136
f 62/214/137 72/135/137 67/94/137
f 62/214/138 67/94/138 25/96/138
f 17/134/139 72/135/139 62/214/139
f 17/134/140 62/214/140 46/131/140
f 37/129/141 31/8/141 28/185/141
f 37/129/142 27/127/142 30/130/142
f 28/185/143 31/8/143 12/7/143
f 17/116/144 23/128/144 27/127/144
f 37/129/145 26/123/145 64/188/145
f 39/125/146 65/187/146 3/215/146
f 74/122/147 70/119/147 13/118/147
f 23/128/148 17/116/148 21/193/148
f 64/188/149 22/216/149 73/115/149
f 70/119/150 2/190/150 76/120/150
f 1/95/151 70/119/151 74/122/151
f 22/216/152 20/91/152 73/115/152
f 66/93/153 77/109/153 1/95/153
f 53/89/154 38/217/154 19/90/154
