# Blender v2.80 (sub 75) OBJ File: 'parkbase.blend'
# www.blender.org
mtllib Tree.mtl
o Norm_PineTree_Cylinder.005
v 26.145023 5.002578 -26.590202
v 26.145023 20.780880 -23.040083
v 28.934259 5.002578 -25.434862
v 26.423946 20.780880 -22.924549
v 30.089600 5.002578 -22.645626
v 26.539480 20.780880 -22.645626
v 28.934259 5.002578 -19.856390
v 26.423946 20.780880 -22.366703
v 26.145023 5.002578 -18.701050
v 26.145023 20.780880 -22.251169
v 23.355787 5.002578 -19.856390
v 25.866100 20.780880 -22.366703
v 22.200447 5.002578 -22.645626
v 25.750566 20.780880 -22.645626
v 23.355787 5.002578 -25.434862
v 25.866100 20.780880 -22.924549
v 26.145023 7.632295 -25.998516
v 26.145023 10.262012 -25.406830
v 26.145023 12.891728 -24.815144
v 26.145023 15.521445 -24.223455
v 26.145023 18.151163 -23.631769
v 26.842333 18.151163 -23.342936
v 27.260717 15.521445 -23.761320
v 27.679104 12.891728 -24.179707
v 28.097488 10.262012 -24.598091
v 28.515873 7.632295 -25.016476
v 27.131166 18.151163 -22.645626
v 27.722855 15.521445 -22.645626
v 28.314541 12.891728 -22.645626
v 28.906227 10.262012 -22.645626
v 29.497913 7.632295 -22.645626
v 26.842333 18.151163 -21.948317
v 27.260717 15.521445 -21.529932
v 27.679104 12.891728 -21.111546
v 28.097488 10.262012 -20.693161
v 28.515873 7.632295 -20.274776
v 26.145023 18.151163 -21.659483
v 26.145023 15.521445 -21.067797
v 26.145023 12.891728 -20.476109
v 26.145023 10.262012 -19.884422
v 26.145023 7.632295 -19.292736
v 25.447714 18.151163 -21.948317
v 25.029329 15.521445 -21.529932
v 24.610943 12.891728 -21.111546
v 24.192558 10.262012 -20.693161
v 23.774172 7.632295 -20.274776
v 25.158880 18.151163 -22.645626
v 24.567194 15.521445 -22.645626
v 23.975506 12.891728 -22.645626
v 23.383820 10.262012 -22.645626
v 22.792133 7.632295 -22.645626
v 25.447714 18.151163 -23.342936
v 25.029329 15.521445 -23.761320
v 24.610943 12.891728 -24.179707
v 24.192558 10.262012 -24.598091
v 23.774172 7.632295 -25.016476
v 26.145023 18.026804 -24.262197
v 27.251051 17.915651 -23.862257
v 27.688047 18.026804 -22.645626
v 27.251051 17.915651 -21.428995
v 26.145023 18.026804 -21.029055
v 25.038996 17.915651 -21.428995
v 24.601999 18.026804 -22.645626
v 25.038996 17.915651 -23.862257
v 26.145023 15.315913 -25.261112
v 27.934490 15.162313 -24.614038
v 28.641516 15.315913 -22.645626
v 27.934490 15.162313 -20.677214
v 26.145023 15.315913 -20.030140
v 24.355556 15.162313 -20.677214
v 23.648531 15.315913 -22.645626
v 24.355556 15.162313 -24.614038
v 26.145023 12.699426 -26.241919
v 28.605539 12.333083 -25.352194
v 29.577700 12.699426 -22.645626
v 28.605539 12.333083 -19.939058
v 26.145023 12.699426 -19.049334
v 23.684507 12.333083 -19.939058
v 22.712347 12.699426 -22.645626
v 23.684507 12.333083 -25.352194
v 26.145023 10.018649 -27.222725
v 29.276588 9.475138 -26.090349
v 30.513885 10.018649 -22.645626
v 29.276588 9.475138 -19.200903
v 26.145023 10.018649 -18.068527
v 23.013456 9.475138 -19.200905
v 21.776161 10.018649 -22.645626
v 23.013456 9.475138 -26.090347
v 26.145023 7.436563 -28.203533
v 29.947639 6.438096 -26.828503
v 31.450069 7.436563 -22.645626
v 29.947639 6.438096 -18.462749
v 26.145023 7.436563 -17.087719
v 22.342407 6.438096 -18.462749
v 20.839977 7.436563 -22.645626
v 22.342407 6.438096 -26.828503
v 30.439726 3.281633 -27.369799
v 32.386253 4.260645 -22.645626
v 30.439726 3.281633 -17.921453
v 26.145023 4.260645 -16.106915
v 21.850319 3.281633 -17.921453
v 19.903793 4.260645 -22.645626
v 21.850319 3.281633 -27.369799
v 26.145023 4.260645 -29.184338
v 26.145023 5.640238 -24.057875
v 27.143633 5.640238 -23.644236
v 27.557272 5.640238 -22.645626
v 27.143633 5.640238 -21.647017
v 26.145023 5.640238 -21.233377
v 25.146412 5.640238 -21.647017
v 24.732775 5.640238 -22.645626
v 25.146412 5.640238 -23.644236
v 26.145023 21.030676 -22.697784
v 26.181904 21.030676 -22.682508
v 26.197182 21.030676 -22.645626
v 26.181904 21.030676 -22.608744
v 26.145023 21.030676 -22.593468
v 26.108141 21.030676 -22.608744
v 26.092865 21.030676 -22.645626
v 26.108141 21.030676 -22.682508
v 26.145025 5.640237 -24.057877
v 27.143637 5.640237 -23.644239
v 27.557274 5.640237 -22.645628
v 27.143637 5.640237 -21.647018
v 26.145025 5.640237 -21.233381
v 25.146416 5.640237 -21.647018
v 24.732777 5.640237 -22.645628
v 25.146416 5.640237 -23.644239
v 26.145025 0.963011 -24.057877
v 27.143637 0.963011 -23.644239
v 27.557274 0.963011 -22.645628
v 27.143637 0.963011 -21.647018
v 26.145025 0.963011 -21.233381
v 25.146416 0.963011 -21.647018
v 24.732777 0.963011 -22.645628
v 25.146416 0.963011 -23.644239
v 25.246277 3.301624 -23.544378
v 26.145025 3.301624 -23.916651
v 24.874002 3.301624 -22.645628
v 25.246277 3.301624 -21.746880
v 26.145025 3.301624 -21.374605
v 27.043776 3.301624 -21.746880
v 27.416050 3.301624 -22.645628
v 27.043776 3.301624 -23.544378
vt 0.510471 0.874743
vt 0.510471 0.957497
vt 0.502627 0.957728
vt 0.479530 0.872174
vt 0.495090 0.961699
vt 0.448939 0.892414
vt 0.942780 0.241947
vt 0.985559 0.167568
vt 0.991411 0.169857
vt 0.966030 0.254894
vt 1.000000 0.171223
vt 1.000000 0.256793
vt 0.225886 0.974637
vt 0.267428 0.903063
vt 0.274329 0.906799
vt 0.251358 0.992387
vt 0.282841 0.907148
vt 0.287977 0.990234
vt 0.775868 0.914431
vt 0.767280 0.913064
vt 0.772434 0.904763
vt 0.773570 0.904944
vt 0.741899 0.998102
vt 0.775868 1.000000
vt 0.718648 0.985154
vt 0.761427 0.910776
vt 0.649318 0.543446
vt 0.564357 0.440623
vt 0.602762 0.386089
vt 0.741355 0.450593
vt 0.222322 0.790332
vt 0.155607 0.697386
vt 0.189542 0.654192
vt 0.311213 0.719356
vt 0.790949 0.904763
vt 0.718648 0.825341
vt 0.743229 0.789866
vt 0.854083 0.840138
vt 0.071328 0.924642
vt 0.000000 0.856453
vt 0.017435 0.830352
vt 0.118653 0.872639
vt 0.950452 0.543446
vt 0.950452 0.635120
vt 0.930940 0.637172
vt 0.900480 0.543636
vt 0.614167 0.314593
vt 0.741355 0.301440
vt 0.202003 0.595886
vt 0.311213 0.589002
vt 0.750256 0.743550
vt 0.854083 0.734873
vt 0.021972 0.796585
vt 0.118653 0.790332
vt 0.912897 0.648484
vt 0.853326 0.579431
vt 0.648721 0.772067
vt 0.564357 0.676459
vt 0.585929 0.627603
vt 0.718648 0.680465
vt 0.785119 0.734873
vt 0.718648 0.648365
vt 0.738223 0.608979
vt 0.853326 0.663402
vt 0.405271 0.906066
vt 0.330201 0.833980
vt 0.343114 0.801926
vt 0.448939 0.841689
vt 0.194392 0.917996
vt 0.118653 0.856992
vt 0.127526 0.833478
vt 0.225886 0.866421
vt 0.854083 0.911324
vt 0.901493 0.831881
vt 0.916484 0.836578
vt 0.893124 0.928888
vt 0.600664 0.555174
vt 0.718648 0.543446
vt 0.753056 0.549945
vt 0.853326 0.543446
vt 0.351104 0.754773
vt 0.448938 0.744510
vt 0.132578 0.799065
vt 0.225886 0.790332
vt 0.938141 0.838501
vt 0.948100 0.928888
vt 0.084962 0.589002
vt 0.000000 0.486179
vt 0.038405 0.431645
vt 0.176999 0.496150
vt 0.066716 0.790332
vt 0.000000 0.697386
vt 0.033935 0.654192
vt 0.155607 0.719356
vt 0.813656 0.471330
vt 0.741355 0.391908
vt 0.765936 0.356433
vt 0.876790 0.406704
vt 0.842340 0.295866
vt 0.771012 0.227677
vt 0.788448 0.201576
vt 0.889665 0.243863
vt 0.323012 0.790332
vt 0.323012 0.882007
vt 0.303500 0.884058
vt 0.273040 0.790522
vt 0.049810 0.360149
vt 0.176999 0.346996
vt 0.046396 0.595885
vt 0.155607 0.589002
vt 0.772963 0.310116
vt 0.876790 0.301440
vt 0.792984 0.167809
vt 0.889665 0.161556
vt 0.285457 0.895370
vt 0.225886 0.826318
vt 0.771012 0.137019
vt 0.638293 0.084157
vt 0.653028 0.011728
vt 0.771012 0.000000
vt 0.311676 0.466952
vt 0.196574 0.412530
vt 0.211406 0.353495
vt 0.311676 0.346996
vt 0.889750 0.097179
vt 0.783925 0.057416
vt 0.791915 0.010263
vt 0.889750 0.000000
vt 0.556172 0.820599
vt 0.457812 0.787657
vt 0.462863 0.753243
vt 0.556172 0.744510
vt 0.893124 0.831881
vt 0.916484 0.739570
vt 0.938141 0.741494
vt 0.948100 0.831881
vt 0.701085 0.228621
vt 0.616721 0.133013
vt 0.243469 0.538424
vt 0.176999 0.451916
vt 0.846083 0.161556
vt 0.771012 0.089470
vt 0.524677 0.872174
vt 0.448939 0.811170
vt 0.854083 0.814317
vt 0.901493 0.734873
vt 0.909729 0.508207
vt 0.902976 0.525340
vt 0.876790 0.503756
vt 0.894024 0.493577
vt 0.877429 0.466481
vt 0.892959 0.471864
vt 0.899702 0.437824
vt 0.907157 0.455788
vt 0.933421 0.437734
vt 0.928300 0.454766
vt 0.958149 0.459407
vt 0.944005 0.469396
vt 0.958968 0.496592
vt 0.945070 0.491108
vt 0.930872 0.507185
vt 0.935236 0.525340
vt 0.617670 0.885599
vt 0.606545 0.913797
vt 0.564357 0.878857
vt 0.592548 0.862186
vt 0.565231 0.818559
vt 0.590851 0.827445
vt 0.601449 0.772191
vt 0.613572 0.801728
vt 0.655831 0.772067
vt 0.647403 0.800099
vt 0.696003 0.807131
vt 0.672525 0.823512
vt 0.697144 0.867304
vt 0.674222 0.858253
vt 0.651501 0.883970
vt 0.658911 0.913797
vt 0.403941 0.705762
vt 0.389270 0.744510
vt 0.330201 0.696582
vt 0.369370 0.673599
vt 0.332349 0.613609
vt 0.366993 0.625833
vt 0.381074 0.549872
vt 0.398204 0.590444
vt 0.456866 0.549573
vt 0.444719 0.588163
vt 0.511128 0.597800
vt 0.479290 0.620326
vt 0.513788 0.680474
vt 0.481666 0.668092
vt 0.450456 0.703481
vt 0.460255 0.744510
vt 0.424553 0.500251
vt 0.405908 0.549573
vt 0.330201 0.488632
vt 0.380539 0.459332
vt 0.333404 0.382997
vt 0.377494 0.398539
vt 0.394882 0.301887
vt 0.417201 0.353485
vt 0.491852 0.301440
vt 0.476401 0.350561
vt 0.560427 0.362828
vt 0.520415 0.391480
vt 0.564357 0.468016
vt 0.523460 0.452273
vt 0.483753 0.497327
vt 0.495746 0.549572
vt 0.446356 0.241562
vt 0.424448 0.301440
vt 0.330201 0.227702
vt 0.392846 0.191944
vt 0.336144 0.099284
vt 0.389051 0.118129
vt 0.408447 0.000839
vt 0.437196 0.063358
vt 0.528416 0.000000
vt 0.509076 0.059714
vt 0.609563 0.074576
vt 0.562587 0.109332
vt 0.616721 0.202156
vt 0.566381 0.183146
vt 0.518237 0.237918
vt 0.531316 0.301440
vt 0.199422 0.068920
vt 0.232614 0.000074
vt 0.330201 0.096347
vt 0.258874 0.130856
vt 0.322492 0.243543
vt 0.258279 0.217809
vt 0.227075 0.346996
vt 0.197986 0.278844
vt 0.089878 0.346996
vt 0.113314 0.278206
vt 0.005163 0.250649
vt 0.053863 0.216270
vt 0.000000 0.103527
vt 0.054458 0.129317
vt 0.114751 0.068282
vt 0.108289 0.000000
vt 0.167591 0.136122
vt 0.137276 0.135894
vt 0.115690 0.157746
vt 0.115477 0.188877
vt 0.136762 0.211052
vt 0.167077 0.211280
vt 0.188663 0.189428
vt 0.188876 0.158297
vt 0.505140 0.968913
vt 0.506177 0.968883
vt 0.506647 0.969364
vt 0.506275 0.970076
vt 0.505278 0.970601
vt 0.504241 0.970632
vt 0.503771 0.970150
vt 0.504143 0.969438
vt 0.287977 0.903904
vt 0.278896 0.895910
vt 0.279576 0.895481
vt 0.277771 0.895864
vt 0.276858 0.895370
vt 0.996566 0.161556
vt 0.997702 0.161736
vt 0.492276 0.967081
vt 0.900331 0.371166
vt 0.928354 0.371177
vt 0.929904 0.437734
vt 0.898768 0.437722
vt 0.880551 0.366838
vt 0.876790 0.432912
vt 0.919364 0.058478
vt 0.892167 0.062190
vt 0.889750 0.004124
vt 0.919969 0.000000
vt 0.943370 0.066424
vt 0.946643 0.008828
vt 0.913207 0.231282
vt 0.941230 0.231293
vt 0.942780 0.297850
vt 0.911643 0.297838
vt 0.893427 0.226954
vt 0.889665 0.293028
vt 0.959518 0.359918
vt 0.932321 0.363630
vt 0.929904 0.305564
vt 0.960124 0.301440
vt 0.983525 0.367864
vt 0.986798 0.310268
vt 0.898768 0.306249
vt 0.929904 0.306261
vt 0.876790 0.301440
vt 0.919969 0.112534
vt 0.889750 0.116659
vt 0.946643 0.121363
vt 0.911643 0.166365
vt 0.942780 0.166377
vt 0.889665 0.161556
vt 0.960124 0.413974
vt 0.929904 0.418098
vt 0.986798 0.422802
vn 0.3493 0.3805 -0.8563
vn 0.8653 0.3621 -0.3466
vn 0.8653 0.3621 0.3466
vn 0.3492 0.3805 0.8563
vn -0.3492 0.3805 0.8563
vn -0.8653 0.3621 0.3466
vn -0.2372 0.7847 -0.5727
vn -0.3493 0.3805 -0.8563
vn -0.8653 0.3621 -0.3466
vn 0.3829 0.5995 -0.7028
vn 0.3696 0.6236 -0.6888
vn 0.3454 0.5892 -0.7304
vn 0.3456 0.5387 -0.7683
vn 0.3362 0.4696 -0.8163
vn 0.7289 0.5698 -0.3795
vn 0.7151 0.5954 -0.3663
vn 0.7537 0.5597 -0.3446
vn 0.7878 0.5106 -0.3445
vn 0.8305 0.4444 -0.3359
vn 0.7289 0.5698 0.3795
vn 0.7151 0.5954 0.3663
vn 0.7537 0.5597 0.3446
vn 0.7878 0.5106 0.3445
vn 0.8305 0.4444 0.3359
vn 0.3829 0.5995 0.7028
vn 0.3696 0.6236 0.6888
vn 0.3454 0.5892 0.7304
vn 0.3456 0.5387 0.7683
vn 0.3362 0.4696 0.8163
vn -0.3829 0.5995 0.7028
vn -0.3696 0.6236 0.6888
vn -0.3454 0.5892 0.7304
vn -0.3456 0.5387 0.7683
vn -0.3362 0.4696 0.8163
vn -0.7289 0.5698 0.3795
vn -0.7151 0.5954 0.3663
vn -0.7537 0.5597 0.3446
vn -0.7878 0.5106 0.3445
vn -0.8305 0.4444 0.3359
vn -0.3829 0.5995 -0.7028
vn -0.3696 0.6236 -0.6888
vn -0.3454 0.5892 -0.7304
vn -0.3456 0.5387 -0.7683
vn -0.3362 0.4696 -0.8163
vn -0.7289 0.5698 -0.3795
vn -0.7151 0.5954 -0.3663
vn -0.7537 0.5597 -0.3446
vn -0.7878 0.5106 -0.3445
vn -0.8305 0.4444 -0.3359
vn -0.1527 -0.9573 0.2454
vn -0.2695 -0.9501 0.1574
vn -0.2695 -0.9501 -0.1574
vn -0.1527 -0.9573 -0.2454
vn 0.1527 -0.9573 -0.2454
vn 0.2695 -0.9501 -0.1574
vn 0.1527 -0.9573 0.2454
vn 0.2695 -0.9501 0.1574
vn -0.1412 -0.9612 0.2368
vn -0.2602 -0.9544 0.1462
vn -0.2602 -0.9544 -0.1462
vn -0.1412 -0.9612 -0.2368
vn 0.1412 -0.9612 -0.2368
vn 0.2602 -0.9544 -0.1462
vn 0.1412 -0.9612 0.2368
vn 0.2602 -0.9544 0.1462
vn -0.1709 -0.9611 0.2168
vn -0.2359 -0.9564 0.1720
vn -0.2359 -0.9564 -0.1720
vn -0.1709 -0.9611 -0.2168
vn 0.1709 -0.9611 -0.2168
vn 0.2359 -0.9564 -0.1720
vn 0.1709 -0.9611 0.2168
vn 0.2359 -0.9564 0.1720
vn -0.1897 -0.9546 0.2297
vn -0.2493 -0.9496 0.1901
vn -0.2493 -0.9496 -0.1901
vn -0.1897 -0.9546 -0.2297
vn 0.1897 -0.9546 -0.2297
vn 0.2493 -0.9496 -0.1901
vn 0.1897 -0.9546 0.2297
vn 0.2493 -0.9496 0.1901
vn -0.2432 -0.9402 0.2386
vn -0.2562 -0.9364 0.2398
vn -0.2562 -0.9364 -0.2398
vn -0.2432 -0.9402 -0.2386
vn 0.2432 -0.9402 -0.2386
vn 0.2562 -0.9364 -0.2398
vn 0.2432 -0.9402 0.2386
vn 0.2562 -0.9364 0.2398
vn -0.2825 -0.8790 0.3841
vn -0.4153 -0.8642 0.2840
vn -0.4153 -0.8642 -0.2840
vn -0.2825 -0.8790 -0.3841
vn 0.2825 -0.8790 -0.3841
vn 0.4153 -0.8642 -0.2840
vn 0.2825 -0.8790 0.3841
vn 0.4153 -0.8642 0.2840
vn 0.1006 -0.9648 0.2429
vn 0.2429 -0.9648 0.1006
vn 0.2429 -0.9648 -0.1006
vn 0.1006 -0.9648 -0.2429
vn -0.1006 -0.9648 -0.2429
vn -0.2429 -0.9648 -0.1006
vn -0.2429 -0.9648 0.1006
vn -0.1006 -0.9648 0.2429
vn 0.0000 1.0000 0.0000
vn -0.5727 0.7847 -0.2372
vn -0.5727 0.7847 0.2372
vn -0.2372 0.7847 0.5727
vn 0.2372 0.7847 0.5727
vn 0.5727 0.7847 0.2372
vn 0.5727 0.7847 -0.2372
vn 0.2372 0.7847 -0.5727
vn -0.3821 0.0557 -0.9224
vn -0.9224 0.0557 -0.3821
vn -0.9224 0.0557 0.3821
vn -0.3821 0.0557 0.9224
vn 0.3821 0.0557 0.9224
vn 0.9224 0.0557 0.3821
vn 0.9224 0.0557 -0.3821
vn 0.3821 0.0557 -0.9224
vn -0.3821 -0.0557 -0.9224
vn -0.9224 -0.0557 -0.3821
vn -0.9224 -0.0557 0.3821
vn -0.3821 -0.0557 0.9224
vn 0.3821 -0.0557 0.9224
vn 0.9224 -0.0557 0.3821
vn 0.9224 -0.0557 -0.3821
vn 0.3821 -0.0557 -0.9224
usemtl None
s off
f 57/1/1 2/2/1 4/3/1 58/4/1
f 58/4/2 4/3/2 6/5/2 59/6/2
f 59/7/3 6/8/3 8/9/3 60/10/3
f 60/10/4 8/9/4 10/11/4 61/12/4
f 61/13/5 10/14/5 12/15/5 62/16/5
f 62/16/6 12/15/6 14/17/6 63/18/6
f 2/19/7 16/20/7 120/21/7 113/22/7
f 64/23/8 16/20/8 2/19/8 57/24/8
f 63/25/9 14/26/9 16/20/9 64/23/9
f 104/27/10 17/28/10 26/29/10 97/30/10
f 89/31/11 18/32/11 25/33/11 90/34/11
f 81/35/12 19/36/12 24/37/12 82/38/12
f 73/39/13 20/40/13 23/41/13 74/42/13
f 65/43/14 21/44/14 22/45/14 66/46/14
f 97/30/15 26/29/15 31/47/15 98/48/15
f 90/34/16 25/33/16 30/49/16 91/50/16
f 82/38/17 24/37/17 29/51/17 83/52/17
f 74/42/18 23/41/18 28/53/18 75/54/18
f 66/46/19 22/45/19 27/55/19 67/56/19
f 98/57/20 31/58/20 36/59/20 99/60/20
f 91/61/21 30/62/21 35/63/21 92/64/21
f 83/65/22 29/66/22 34/67/22 84/68/22
f 75/69/23 28/70/23 33/71/23 76/72/23
f 67/73/24 27/74/24 32/75/24 68/76/24
f 99/60/25 36/59/25 41/77/25 100/78/25
f 92/64/26 35/63/26 40/79/26 93/80/26
f 84/68/27 34/67/27 39/81/27 85/82/27
f 76/72/28 33/71/28 38/83/28 77/84/28
f 68/76/29 32/75/29 37/85/29 69/86/29
f 100/87/30 41/88/30 46/89/30 101/90/30
f 93/91/31 40/92/31 45/93/31 94/94/31
f 85/95/32 39/96/32 44/97/32 86/98/32
f 77/99/33 38/100/33 43/101/33 78/102/33
f 69/103/34 37/104/34 42/105/34 70/106/34
f 101/90/35 46/89/35 51/107/35 102/108/35
f 94/94/36 45/93/36 50/109/36 95/110/36
f 86/98/37 44/97/37 49/111/37 87/112/37
f 78/102/38 43/101/38 48/113/38 79/114/38
f 70/106/39 42/105/39 47/115/39 71/116/39
f 103/117/40 56/118/40 17/119/40 104/120/40
f 96/121/41 55/122/41 18/123/41 89/124/41
f 88/125/42 54/126/42 19/127/42 81/128/42
f 80/129/43 53/130/43 20/131/43 73/132/43
f 72/133/44 52/134/44 21/135/44 65/136/44
f 102/137/45 51/138/45 56/118/45 103/117/45
f 95/139/46 50/140/46 55/122/46 96/121/46
f 87/141/47 49/142/47 54/126/47 88/125/47
f 79/143/48 48/144/48 53/130/48 80/129/48
f 71/145/49 47/146/49 52/134/49 72/133/49
f 21/147/50 57/148/50 58/149/50 22/150/50
f 22/150/51 58/149/51 59/151/51 27/152/51
f 27/152/52 59/151/52 60/153/52 32/154/52
f 32/154/53 60/153/53 61/155/53 37/156/53
f 37/156/54 61/155/54 62/157/54 42/158/54
f 42/158/55 62/157/55 63/159/55 47/160/55
f 52/161/56 64/162/56 57/148/56 21/147/56
f 47/160/57 63/159/57 64/162/57 52/161/57
f 20/163/58 65/164/58 66/165/58 23/166/58
f 23/166/59 66/165/59 67/167/59 28/168/59
f 28/168/60 67/167/60 68/169/60 33/170/60
f 33/170/61 68/169/61 69/171/61 38/172/61
f 38/172/62 69/171/62 70/173/62 43/174/62
f 43/174/63 70/173/63 71/175/63 48/176/63
f 53/177/64 72/178/64 65/164/64 20/163/64
f 48/176/65 71/175/65 72/178/65 53/177/65
f 19/179/66 73/180/66 74/181/66 24/182/66
f 24/182/67 74/181/67 75/183/67 29/184/67
f 29/184/68 75/183/68 76/185/68 34/186/68
f 34/186/69 76/185/69 77/187/69 39/188/69
f 39/188/70 77/187/70 78/189/70 44/190/70
f 44/190/71 78/189/71 79/191/71 49/192/71
f 54/193/72 80/194/72 73/180/72 19/179/72
f 49/192/73 79/191/73 80/194/73 54/193/73
f 18/195/74 81/196/74 82/197/74 25/198/74
f 25/198/75 82/197/75 83/199/75 30/200/75
f 30/200/76 83/199/76 84/201/76 35/202/76
f 35/202/77 84/201/77 85/203/77 40/204/77
f 40/204/78 85/203/78 86/205/78 45/206/78
f 45/206/79 86/205/79 87/207/79 50/208/79
f 55/209/80 88/210/80 81/196/80 18/195/80
f 50/208/81 87/207/81 88/210/81 55/209/81
f 17/211/82 89/212/82 90/213/82 26/214/82
f 26/214/83 90/213/83 91/215/83 31/216/83
f 31/216/84 91/215/84 92/217/84 36/218/84
f 36/218/85 92/217/85 93/219/85 41/220/85
f 41/220/86 93/219/86 94/221/86 46/222/86
f 46/222/87 94/221/87 95/223/87 51/224/87
f 56/225/88 96/226/88 89/212/88 17/211/88
f 51/224/89 95/223/89 96/226/89 56/225/89
f 1/227/90 104/228/90 97/229/90 3/230/90
f 3/230/91 97/229/91 98/231/91 5/232/91
f 5/232/92 98/231/92 99/233/92 7/234/92
f 7/234/93 99/233/93 100/235/93 9/236/93
f 9/236/94 100/235/94 101/237/94 11/238/94
f 11/238/95 101/237/95 102/239/95 13/240/95
f 15/241/96 103/242/96 104/228/96 1/227/96
f 13/240/97 102/239/97 103/242/97 15/241/97
f 15/241/98 1/227/98 105/243/98 112/244/98
f 13/240/99 15/241/99 112/244/99 111/245/99
f 11/238/100 13/240/100 111/245/100 110/246/100
f 9/236/101 11/238/101 110/246/101 109/247/101
f 7/234/102 9/236/102 109/247/102 108/248/102
f 5/232/103 7/234/103 108/248/103 107/249/103
f 3/230/104 5/232/104 107/249/104 106/250/104
f 1/227/105 3/230/105 106/250/105 105/243/105
f 114/251/106 113/252/106 120/253/106 119/254/106 118/255/106 117/256/106 116/257/106 115/258/106
f 16/259/107 14/17/107 119/260/107 120/261/107
f 14/17/108 12/15/108 118/262/108 119/260/108
f 12/15/109 10/14/109 117/263/109 118/262/109
f 10/11/110 8/9/110 116/264/110 117/265/110
f 8/266/111 6/5/111 115/258/111 116/257/111
f 6/5/112 4/3/112 114/251/112 115/258/112
f 4/3/113 2/2/113 113/252/113 114/251/113
f 137/267/114 138/268/114 129/269/114 136/270/114
f 139/271/115 137/267/115 136/270/115 135/272/115
f 140/273/116 139/274/116 135/275/116 134/276/116
f 141/277/117 140/273/117 134/276/117 133/278/117
f 142/279/118 141/280/118 133/281/118 132/282/118
f 143/283/119 142/279/119 132/282/119 131/284/119
f 144/285/120 143/286/120 131/287/120 130/288/120
f 138/289/121 144/285/121 130/288/121 129/290/121
f 128/291/122 121/292/122 138/268/122 137/267/122
f 127/293/123 128/291/123 137/267/123 139/271/123
f 126/294/124 127/295/124 139/274/124 140/273/124
f 125/296/125 126/294/125 140/273/125 141/277/125
f 124/297/126 125/298/126 141/280/126 142/279/126
f 123/299/127 124/297/127 142/279/127 143/283/127
f 122/300/128 123/301/128 143/286/128 144/285/128
f 121/302/129 122/300/129 144/285/129 138/289/129
